<svg xmlns="http://www.w3.org/2000/svg" xmlns:xlink="http://www.w3.org/1999/xlink" width="254" height="32" viewBox="0 0 254 32" fill="none">
<path   fill="rgba(51, 51, 51, 1)"  d="M23 15L24 15L24 17L23 17L23 15ZM26 15L28 15L28 17L26 17L26 15ZM30 15L32 15L32 17L30 17L30 15ZM34 15L36 15L36 17L34 17L34 15ZM38 15L40 15L40 17L38 17L38 15ZM42 15L44 15L44 17L42 17L42 15ZM46 15L48 15L48 17L46 17L46 15ZM50 15L52 15L52 17L50 17L50 15ZM54 15L56 15L56 17L54 17L54 15ZM58 15L60 15L60 17L58 17L58 15ZM62 15L64 15L64 17L62 17L62 15ZM66 15L68 15L68 17L66 17L66 15ZM70 15L72 15L72 17L70 17L70 15ZM74 15L76 15L76 17L74 17L74 15ZM78 15L80 15L80 17L78 17L78 15ZM82 15L84 15L84 17L82 17L82 15ZM86 15L88 15L88 17L86 17L86 15ZM90 15L92 15L92 17L90 17L90 15ZM94 15L96 15L96 17L94 17L94 15ZM98 15L100 15L100 17L98 17L98 15ZM102 15L104 15L104 17L102 17L102 15ZM106 15L108 15L108 17L106 17L106 15ZM110 15L112 15L112 17L110 17L110 15ZM114 15L116 15L116 17L114 17L114 15ZM118 15L120 15L120 17L118 17L118 15ZM122 15L124 15L124 17L122 17L122 15ZM126 15L128 15L128 17L126 17L126 15ZM130 15L132 15L132 17L130 17L130 15ZM134 15L136 15L136 17L134 17L134 15ZM138 15L140 15L140 17L138 17L138 15ZM142 15L144 15L144 17L142 17L142 15ZM146 15L148 15L148 17L146 17L146 15ZM150 15L152 15L152 17L150 17L150 15ZM154 15L156 15L156 17L154 17L154 15ZM158 15L160 15L160 17L158 17L158 15ZM162 15L164 15L164 17L162 17L162 15ZM166 15L168 15L168 17L166 17L166 15ZM170 15L172 15L172 17L170 17L170 15ZM174 15L176 15L176 17L174 17L174 15ZM178 15L180 15L180 17L178 17L178 15ZM182 15L184 15L184 17L182 17L182 15ZM186 15L188 15L188 17L186 17L186 15ZM190 15L192 15L192 17L190 17L190 15ZM194 15L196 15L196 17L194 17L194 15ZM198 15L200 15L200 17L198 17L198 15ZM202 15L204 15L204 17L202 17L202 15ZM206 15L208 15L208 17L206 17L206 15ZM210 15L212 15L212 17L210 17L210 15ZM214 15L216 15L216 17L214 17L214 15ZM218 15L220 15L220 17L218 17L218 15ZM222 15L224 15L224 17L222 17L222 15ZM226 15L228 15L228 17L226 17L226 15ZM230 15L231 15L231 17L230 17L230 15Z">
</path>
</svg>
