<svg xmlns="http://www.w3.org/2000/svg" xmlns:xlink="http://www.w3.org/1999/xlink" width="210" height="6" viewBox="0 0 210 6" fill="none">
<path     fill="#4A89E9"  d="M0 6L210 6L210 0L0 0L0 6Z">
</path>
<path d="M9.506 5L11.0098 5L13 3L11.0098 1.00001L9.506 1.00001L11.4962 3L9.506 5ZM7 1.00001L8.50375 1.00001L10.494 3L8.50375 5L7 5L8.99025 3L7 1.00001Z"   fill="#FFFFFF" >
</path>
<path d="M19.506 5L21.0098 5L23 3L21.0098 1.00001L19.506 1.00001L21.4962 3L19.506 5ZM17 1.00001L18.5037 1.00001L20.494 3L18.5037 5L17 5L18.9902 3L17 1.00001Z"   fill="#FFFFFF" >
</path>
<path d="M29.506 5L31.0098 5L33 3L31.0098 1.00001L29.506 1.00001L31.4962 3L29.506 5ZM27 1.00001L28.5037 1.00001L30.494 3L28.5037 5L27 5L28.9902 3L27 1.00001Z"   fill="#FFFFFF" >
</path>
<path d="M39.506 5L41.0098 5L43 3L41.0098 1.00001L39.506 1.00001L41.4963 3L39.506 5ZM37 1.00001L38.5037 1.00001L40.494 3L38.5037 5L37 5L38.9902 3L37 1.00001Z"   fill="#FFFFFF" >
</path>
<path d="M49.506 5L51.0098 5L53 3L51.0098 1.00001L49.506 1.00001L51.4963 3L49.506 5ZM47 1.00001L48.5037 1.00001L50.494 3L48.5037 5L47 5L48.9902 3L47 1.00001Z"   fill="#FFFFFF" >
</path>
<path d="M59.506 5L61.0098 5L63 3L61.0098 1.00001L59.506 1.00001L61.4963 3L59.506 5ZM57 1.00001L58.5037 1.00001L60.494 3L58.5037 5L57 5L58.9902 3L57 1.00001Z"   fill="#FFFFFF" >
</path>
<path d="M69.506 5L71.0098 5L73 3L71.0098 1.00001L69.506 1.00001L71.4962 3L69.506 5ZM67 1.00001L68.5037 1.00001L70.494 3L68.5037 5L67 5L68.9902 3L67 1.00001Z"   fill="#FFFFFF" >
</path>
<path d="M79.506 5L81.0098 5L83 3L81.0098 1.00001L79.506 1.00001L81.4962 3L79.506 5ZM77 1.00001L78.5037 1.00001L80.494 3L78.5037 5L77 5L78.9902 3L77 1.00001Z"   fill="#FFFFFF" >
</path>
<path d="M89.506 5L91.0098 5L93 3L91.0098 1.00001L89.506 1.00001L91.4962 3L89.506 5ZM87 1.00001L88.5037 1.00001L90.494 3L88.5037 5L87 5L88.9902 3L87 1.00001Z"   fill="#FFFFFF" >
</path>
<path d="M99.506 5L101.01 5L103 3L101.01 1.00001L99.506 1.00001L101.496 3L99.506 5ZM97 1.00001L98.5037 1.00001L100.494 3L98.5037 5L97 5L98.9902 3L97 1.00001Z"   fill="#FFFFFF" >
</path>
<path d="M109.506 5L111.01 5L113 3L111.01 1.00001L109.506 1.00001L111.496 3L109.506 5ZM107 1.00001L108.504 1.00001L110.494 3L108.504 5L107 5L108.99 3L107 1.00001Z"   fill="#FFFFFF" >
</path>
<path d="M119.506 5L121.01 5L123 3L121.01 1.00001L119.506 1.00001L121.496 3L119.506 5ZM117 1.00001L118.504 1.00001L120.494 3L118.504 5L117 5L118.99 3L117 1.00001Z"   fill="#FFFFFF" >
</path>
<path d="M129.506 5L131.01 5L133 3L131.01 1.00001L129.506 1.00001L131.496 3L129.506 5ZM127 1.00001L128.504 1.00001L130.494 3L128.504 5L127 5L128.99 3L127 1.00001Z"   fill="#FFFFFF" >
</path>
<path d="M139.506 5L141.01 5L143 3L141.01 1.00001L139.506 1.00001L141.496 3L139.506 5ZM137 1.00001L138.504 1.00001L140.494 3L138.504 5L137 5L138.99 3L137 1.00001Z"   fill="#FFFFFF" >
</path>
<path d="M149.506 5L151.01 5L153 3L151.01 1.00001L149.506 1.00001L151.496 3L149.506 5ZM147 1.00001L148.504 1.00001L150.494 3L148.504 5L147 5L148.99 3L147 1.00001Z"   fill="#FFFFFF" >
</path>
<path d="M159.506 5L161.01 5L163 3L161.01 1.00001L159.506 1.00001L161.496 3L159.506 5ZM157 1.00001L158.504 1.00001L160.494 3L158.504 5L157 5L158.99 3L157 1.00001Z"   fill="#FFFFFF" >
</path>
<path d="M169.506 5L171.01 5L173 3L171.01 1.00001L169.506 1.00001L171.496 3L169.506 5ZM167 1.00001L168.504 1.00001L170.494 3L168.504 5L167 5L168.99 3L167 1.00001Z"   fill="#FFFFFF" >
</path>
<path d="M179.506 5L181.01 5L183 3L181.01 1.00001L179.506 1.00001L181.496 3L179.506 5ZM177 1.00001L178.504 1.00001L180.494 3L178.504 5L177 5L178.99 3L177 1.00001Z"   fill="#FFFFFF" >
</path>
<path d="M189.506 5L191.01 5L193 3L191.01 1.00001L189.506 1.00001L191.496 3L189.506 5ZM187 1.00001L188.504 1.00001L190.494 3L188.504 5L187 5L188.99 3L187 1.00001Z"   fill="#FFFFFF" >
</path>
<path d="M199.506 5L201.01 5L203 3L201.01 1.00001L199.506 1.00001L201.496 3L199.506 5ZM197 1.00001L198.504 1.00001L200.494 3L198.504 5L197 5L198.99 3L197 1.00001Z"   fill="#FFFFFF" >
</path>
</svg>
