<svg xmlns="http://www.w3.org/2000/svg" xmlns:xlink="http://www.w3.org/1999/xlink" width="206" height="6" viewBox="0 0 206 6" fill="none">
<path     fill="#999999"  d="M0 6L206 6L206 0L0 0L0 6Z">
</path>
<path d="M3.00592 2.62033C3.00592 2.44043 3.06665 2.31943 3.18811 2.25732C3.30957 2.19521 3.50064 2.16416 3.76133 2.16416C3.87983 2.16416 4.06646 2.16523 4.32123 2.16738C4.57599 2.16951 4.84704 2.17059 5.1344 2.17059C5.42175 2.17059 5.7017 2.17165 5.97424 2.1738C6.24677 2.17594 6.46303 2.17701 6.623 2.17701C6.84814 2.18129 7.02588 2.16738 7.15623 2.13525C7.28657 2.10313 7.35175 2.02924 7.35175 1.91359C7.35175 1.82792 7.35619 1.72619 7.36508 1.6084C7.37397 1.49061 7.37841 1.38888 7.37841 1.30322C7.38433 1.1533 7.44358 1.058 7.55615 1.01731C7.66872 0.976618 7.81091 1.00767 7.98274 1.11047C8.16048 1.21327 8.36784 1.33534 8.60484 1.47669C8.84182 1.61804 9.0877 1.7626 9.34247 1.91038C9.59723 2.05815 9.84607 2.20378 10.089 2.34727C10.3319 2.49076 10.5482 2.61605 10.7378 2.72313C10.9096 2.82593 10.997 2.92337 10.9999 3.01547C11.0029 3.10756 10.9214 3.20286 10.7555 3.30138C10.5837 3.40418 10.3808 3.52196 10.1468 3.65475C9.91272 3.78753 9.66981 3.9246 9.41801 4.06594C9.1662 4.20729 8.91885 4.34757 8.67593 4.48678C8.43301 4.62598 8.21676 4.74913 8.02717 4.85621C7.8198 4.97614 7.64947 5.02111 7.51616 4.99114C7.38285 4.96115 7.31916 4.86906 7.32509 4.71486L7.32509 4.56066L7.32509 4.37434C7.32509 4.31009 7.3236 4.24691 7.32064 4.18481C7.31767 4.1227 7.3162 4.06594 7.3162 4.01454C7.3162 3.90746 7.27176 3.84 7.18289 3.81216C7.09402 3.78431 6.97256 3.7704 6.81852 3.7704C6.64669 3.7704 6.42156 3.76932 6.14309 3.76718C5.86462 3.76504 5.57432 3.76397 5.27215 3.76397C4.96999 3.76397 4.67671 3.7629 4.39232 3.76076C4.10793 3.75861 3.87687 3.75755 3.69912 3.75755C3.6221 3.75755 3.54212 3.75219 3.45917 3.74148C3.37622 3.73077 3.30068 3.71043 3.23255 3.68045C3.16441 3.65046 3.10961 3.60656 3.06813 3.54874C3.02666 3.49091 3.00592 3.41274 3.00592 3.31423C3.00592 3.19858 3.00444 3.08721 3.00148 2.98013C2.99852 2.87305 3 2.75311 3.00592 2.62033Z"   fill="#2D2D2D" >
</path>
<path d="M15.0059 2.62033C15.0059 2.44043 15.0667 2.31943 15.1881 2.25732C15.3096 2.19521 15.5006 2.16416 15.7613 2.16416C15.8798 2.16416 16.0665 2.16523 16.3212 2.16738C16.576 2.16951 16.847 2.17059 17.1344 2.17059C17.4217 2.17059 17.7017 2.17165 17.9742 2.1738C18.2468 2.17594 18.463 2.17701 18.623 2.17701C18.8481 2.18129 19.0259 2.16738 19.1562 2.13525C19.2866 2.10313 19.3517 2.02924 19.3517 1.91359C19.3517 1.82792 19.3562 1.72619 19.3651 1.6084C19.374 1.49061 19.3784 1.38888 19.3784 1.30322C19.3843 1.1533 19.4436 1.058 19.5562 1.01731C19.6687 0.976618 19.8109 1.00767 19.9827 1.11047C20.1605 1.21327 20.3678 1.33534 20.6048 1.47669C20.8418 1.61804 21.0877 1.7626 21.3425 1.91038C21.5972 2.05815 21.8461 2.20378 22.089 2.34727C22.3319 2.49076 22.5482 2.61605 22.7378 2.72313C22.9096 2.82593 22.997 2.92337 22.9999 3.01547C23.0029 3.10756 22.9214 3.20286 22.7555 3.30138C22.5837 3.40418 22.3808 3.52196 22.1468 3.65475C21.9127 3.78753 21.6698 3.9246 21.418 4.06594C21.1662 4.20729 20.9188 4.34757 20.6759 4.48678C20.433 4.62598 20.2168 4.74913 20.0272 4.85621C19.8198 4.97614 19.6495 5.02111 19.5162 4.99114C19.3829 4.96115 19.3192 4.86906 19.3251 4.71486L19.3251 4.56066L19.3251 4.37434C19.3251 4.31009 19.3236 4.24691 19.3206 4.18481C19.3177 4.1227 19.3162 4.06594 19.3162 4.01454C19.3162 3.90746 19.2718 3.84 19.1829 3.81216C19.094 3.78431 18.9726 3.7704 18.8185 3.7704C18.6467 3.7704 18.4216 3.76932 18.1431 3.76718C17.8646 3.76504 17.5743 3.76397 17.2722 3.76397C16.97 3.76397 16.6767 3.7629 16.3923 3.76076C16.1079 3.75861 15.8769 3.75755 15.6991 3.75755C15.6221 3.75755 15.5421 3.75219 15.4592 3.74148C15.3762 3.73077 15.3007 3.71043 15.2325 3.68045C15.1644 3.65046 15.1096 3.60656 15.0681 3.54874C15.0267 3.49091 15.0059 3.41274 15.0059 3.31423C15.0059 3.19858 15.0044 3.08721 15.0015 2.98013C14.9985 2.87305 15 2.75311 15.0059 2.62033Z"   fill="#2D2D2D" >
</path>
<path d="M27.0059 2.62033C27.0059 2.44043 27.0667 2.31943 27.1881 2.25732C27.3096 2.19521 27.5006 2.16416 27.7613 2.16416C27.8798 2.16416 28.0665 2.16523 28.3212 2.16738C28.576 2.16951 28.847 2.17059 29.1344 2.17059C29.4217 2.17059 29.7017 2.17165 29.9742 2.1738C30.2468 2.17594 30.463 2.17701 30.623 2.17701C30.8481 2.18129 31.0259 2.16738 31.1562 2.13525C31.2866 2.10313 31.3517 2.02924 31.3517 1.91359C31.3517 1.82792 31.3562 1.72619 31.3651 1.6084C31.374 1.49061 31.3784 1.38888 31.3784 1.30322C31.3843 1.1533 31.4436 1.058 31.5562 1.01731C31.6687 0.976618 31.8109 1.00767 31.9827 1.11047C32.1605 1.21327 32.3678 1.33534 32.6048 1.47669C32.8418 1.61804 33.0877 1.7626 33.3425 1.91038C33.5972 2.05815 33.8461 2.20378 34.089 2.34727C34.3319 2.49076 34.5482 2.61605 34.7378 2.72313C34.9096 2.82593 34.997 2.92337 34.9999 3.01547C35.0029 3.10756 34.9214 3.20286 34.7555 3.30138C34.5837 3.40418 34.3808 3.52196 34.1468 3.65475C33.9127 3.78753 33.6698 3.9246 33.418 4.06594C33.1662 4.20729 32.9188 4.34757 32.6759 4.48678C32.433 4.62598 32.2168 4.74913 32.0272 4.85621C31.8198 4.97614 31.6495 5.02111 31.5162 4.99114C31.3829 4.96115 31.3192 4.86906 31.3251 4.71486L31.3251 4.56066L31.3251 4.37434C31.3251 4.31009 31.3236 4.24691 31.3206 4.18481C31.3177 4.1227 31.3162 4.06594 31.3162 4.01454C31.3162 3.90746 31.2718 3.84 31.1829 3.81216C31.094 3.78431 30.9726 3.7704 30.8185 3.7704C30.6467 3.7704 30.4216 3.76932 30.1431 3.76718C29.8646 3.76504 29.5743 3.76397 29.2722 3.76397C28.97 3.76397 28.6767 3.7629 28.3923 3.76076C28.1079 3.75861 27.8769 3.75755 27.6991 3.75755C27.6221 3.75755 27.5421 3.75219 27.4592 3.74148C27.3762 3.73077 27.3007 3.71043 27.2325 3.68045C27.1644 3.65046 27.1096 3.60656 27.0681 3.54874C27.0267 3.49091 27.0059 3.41274 27.0059 3.31423C27.0059 3.19858 27.0044 3.08721 27.0015 2.98013C26.9985 2.87305 27 2.75311 27.0059 2.62033Z"   fill="#2D2D2D" >
</path>
<path d="M39.0059 2.62033C39.0059 2.44043 39.0667 2.31943 39.1881 2.25732C39.3096 2.19521 39.5006 2.16416 39.7613 2.16416C39.8798 2.16416 40.0665 2.16523 40.3212 2.16738C40.576 2.16951 40.847 2.17059 41.1344 2.17059C41.4217 2.17059 41.7017 2.17165 41.9742 2.1738C42.2468 2.17594 42.463 2.17701 42.623 2.17701C42.8481 2.18129 43.0259 2.16738 43.1562 2.13525C43.2866 2.10313 43.3517 2.02924 43.3517 1.91359C43.3517 1.82792 43.3562 1.72619 43.3651 1.6084C43.374 1.49061 43.3784 1.38888 43.3784 1.30322C43.3843 1.1533 43.4436 1.058 43.5562 1.01731C43.6687 0.976618 43.8109 1.00767 43.9827 1.11047C44.1605 1.21327 44.3678 1.33534 44.6048 1.47669C44.8418 1.61804 45.0877 1.7626 45.3425 1.91038C45.5972 2.05815 45.8461 2.20378 46.089 2.34727C46.3319 2.49076 46.5482 2.61605 46.7378 2.72313C46.9096 2.82593 46.997 2.92337 46.9999 3.01547C47.0029 3.10756 46.9214 3.20286 46.7555 3.30138C46.5837 3.40418 46.3808 3.52196 46.1468 3.65475C45.9127 3.78753 45.6698 3.9246 45.418 4.06594C45.1662 4.20729 44.9188 4.34757 44.6759 4.48678C44.433 4.62598 44.2168 4.74913 44.0272 4.85621C43.8198 4.97614 43.6495 5.02111 43.5162 4.99114C43.3829 4.96115 43.3192 4.86906 43.3251 4.71486L43.3251 4.56066L43.3251 4.37434C43.3251 4.31009 43.3236 4.24691 43.3206 4.18481C43.3177 4.1227 43.3162 4.06594 43.3162 4.01454C43.3162 3.90746 43.2718 3.84 43.1829 3.81216C43.094 3.78431 42.9726 3.7704 42.8185 3.7704C42.6467 3.7704 42.4216 3.76932 42.1431 3.76718C41.8646 3.76504 41.5743 3.76397 41.2722 3.76397C40.97 3.76397 40.6767 3.7629 40.3923 3.76076C40.1079 3.75861 39.8769 3.75755 39.6991 3.75755C39.6221 3.75755 39.5421 3.75219 39.4592 3.74148C39.3762 3.73077 39.3007 3.71043 39.2325 3.68045C39.1644 3.65046 39.1096 3.60656 39.0681 3.54874C39.0267 3.49091 39.0059 3.41274 39.0059 3.31423C39.0059 3.19858 39.0044 3.08721 39.0015 2.98013C38.9985 2.87305 39 2.75311 39.0059 2.62033Z"   fill="#2D2D2D" >
</path>
<path d="M51.0059 2.62033C51.0059 2.44043 51.0667 2.31943 51.1881 2.25732C51.3096 2.19521 51.5006 2.16416 51.7613 2.16416C51.8798 2.16416 52.0665 2.16523 52.3212 2.16738C52.576 2.16951 52.847 2.17059 53.1344 2.17059C53.4217 2.17059 53.7017 2.17165 53.9742 2.1738C54.2468 2.17594 54.463 2.17701 54.623 2.17701C54.8481 2.18129 55.0259 2.16738 55.1562 2.13525C55.2866 2.10313 55.3517 2.02924 55.3517 1.91359C55.3517 1.82792 55.3562 1.72619 55.3651 1.6084C55.374 1.49061 55.3784 1.38888 55.3784 1.30322C55.3843 1.1533 55.4436 1.058 55.5562 1.01731C55.6687 0.976618 55.8109 1.00767 55.9827 1.11047C56.1605 1.21327 56.3678 1.33534 56.6048 1.47669C56.8418 1.61804 57.0877 1.7626 57.3425 1.91038C57.5972 2.05815 57.8461 2.20378 58.089 2.34727C58.3319 2.49076 58.5482 2.61605 58.7378 2.72313C58.9096 2.82593 58.997 2.92337 58.9999 3.01547C59.0029 3.10756 58.9214 3.20286 58.7555 3.30138C58.5837 3.40418 58.3808 3.52196 58.1468 3.65475C57.9127 3.78753 57.6698 3.9246 57.418 4.06594C57.1662 4.20729 56.9188 4.34757 56.6759 4.48678C56.433 4.62598 56.2168 4.74913 56.0272 4.85621C55.8198 4.97614 55.6495 5.02111 55.5162 4.99114C55.3829 4.96115 55.3192 4.86906 55.3251 4.71486L55.3251 4.56066L55.3251 4.37434C55.3251 4.31009 55.3236 4.24691 55.3206 4.18481C55.3177 4.1227 55.3162 4.06594 55.3162 4.01454C55.3162 3.90746 55.2718 3.84 55.1829 3.81216C55.094 3.78431 54.9726 3.7704 54.8185 3.7704C54.6467 3.7704 54.4216 3.76932 54.1431 3.76718C53.8646 3.76504 53.5743 3.76397 53.2722 3.76397C52.97 3.76397 52.6767 3.7629 52.3923 3.76076C52.1079 3.75861 51.8769 3.75755 51.6991 3.75755C51.6221 3.75755 51.5421 3.75219 51.4592 3.74148C51.3762 3.73077 51.3007 3.71043 51.2325 3.68045C51.1644 3.65046 51.1096 3.60656 51.0681 3.54874C51.0267 3.49091 51.0059 3.41274 51.0059 3.31423C51.0059 3.19858 51.0044 3.08721 51.0015 2.98013C50.9985 2.87305 51 2.75311 51.0059 2.62033Z"   fill="#2D2D2D" >
</path>
<path d="M63.0059 2.62033C63.0059 2.44043 63.0667 2.31943 63.1881 2.25732C63.3096 2.19521 63.5006 2.16416 63.7613 2.16416C63.8798 2.16416 64.0665 2.16523 64.3212 2.16738C64.576 2.16951 64.847 2.17059 65.1344 2.17059C65.4218 2.17059 65.7017 2.17165 65.9742 2.1738C66.2468 2.17594 66.463 2.17701 66.623 2.17701C66.8481 2.18129 67.0259 2.16738 67.1562 2.13525C67.2866 2.10313 67.3517 2.02924 67.3517 1.91359C67.3517 1.82792 67.3562 1.72619 67.3651 1.6084C67.374 1.49061 67.3784 1.38888 67.3784 1.30322C67.3843 1.1533 67.4436 1.058 67.5562 1.01731C67.6687 0.976618 67.8109 1.00767 67.9827 1.11047C68.1605 1.21327 68.3678 1.33534 68.6048 1.47669C68.8418 1.61804 69.0877 1.7626 69.3425 1.91038C69.5972 2.05815 69.8461 2.20378 70.089 2.34727C70.3319 2.49076 70.5482 2.61605 70.7378 2.72313C70.9096 2.82593 70.997 2.92337 70.9999 3.01547C71.0029 3.10756 70.9214 3.20286 70.7555 3.30138C70.5837 3.40418 70.3808 3.52196 70.1468 3.65475C69.9127 3.78753 69.6698 3.9246 69.418 4.06594C69.1662 4.20729 68.9188 4.34757 68.6759 4.48678C68.433 4.62598 68.2168 4.74913 68.0272 4.85621C67.8198 4.97614 67.6495 5.02111 67.5162 4.99114C67.3829 4.96115 67.3192 4.86906 67.3251 4.71486L67.3251 4.56066L67.3251 4.37434C67.3251 4.31009 67.3236 4.24691 67.3206 4.18481C67.3177 4.1227 67.3162 4.06594 67.3162 4.01454C67.3162 3.90746 67.2718 3.84 67.1829 3.81216C67.094 3.78431 66.9726 3.7704 66.8185 3.7704C66.6467 3.7704 66.4216 3.76932 66.1431 3.76718C65.8646 3.76504 65.5743 3.76397 65.2722 3.76397C64.97 3.76397 64.6767 3.7629 64.3923 3.76076C64.1079 3.75861 63.8769 3.75755 63.6991 3.75755C63.6221 3.75755 63.5421 3.75219 63.4592 3.74148C63.3762 3.73077 63.3007 3.71043 63.2325 3.68045C63.1644 3.65046 63.1096 3.60656 63.0681 3.54874C63.0267 3.49091 63.0059 3.41274 63.0059 3.31423C63.0059 3.19858 63.0044 3.08721 63.0015 2.98013C62.9985 2.87305 63 2.75311 63.0059 2.62033Z"   fill="#2D2D2D" >
</path>
<path d="M75.0059 2.62033C75.0059 2.44043 75.0667 2.31943 75.1881 2.25732C75.3096 2.19521 75.5006 2.16416 75.7613 2.16416C75.8798 2.16416 76.0665 2.16523 76.3212 2.16738C76.576 2.16951 76.847 2.17059 77.1344 2.17059C77.4218 2.17059 77.7017 2.17165 77.9742 2.1738C78.2468 2.17594 78.463 2.17701 78.623 2.17701C78.8481 2.18129 79.0259 2.16738 79.1562 2.13525C79.2866 2.10313 79.3517 2.02924 79.3517 1.91359C79.3517 1.82792 79.3562 1.72619 79.3651 1.6084C79.374 1.49061 79.3784 1.38888 79.3784 1.30322C79.3843 1.1533 79.4436 1.058 79.5562 1.01731C79.6687 0.976618 79.8109 1.00767 79.9827 1.11047C80.1605 1.21327 80.3678 1.33534 80.6048 1.47669C80.8418 1.61804 81.0877 1.7626 81.3425 1.91038C81.5972 2.05815 81.8461 2.20378 82.089 2.34727C82.3319 2.49076 82.5482 2.61605 82.7378 2.72313C82.9096 2.82593 82.997 2.92337 82.9999 3.01547C83.0029 3.10756 82.9214 3.20286 82.7555 3.30138C82.5837 3.40418 82.3808 3.52196 82.1468 3.65475C81.9127 3.78753 81.6698 3.9246 81.418 4.06594C81.1662 4.20729 80.9188 4.34757 80.6759 4.48678C80.433 4.62598 80.2168 4.74913 80.0272 4.85621C79.8198 4.97614 79.6495 5.02111 79.5162 4.99114C79.3829 4.96115 79.3192 4.86906 79.3251 4.71486L79.3251 4.56066L79.3251 4.37434C79.3251 4.31009 79.3236 4.24691 79.3206 4.18481C79.3177 4.1227 79.3162 4.06594 79.3162 4.01454C79.3162 3.90746 79.2718 3.84 79.1829 3.81216C79.094 3.78431 78.9726 3.7704 78.8185 3.7704C78.6467 3.7704 78.4216 3.76932 78.1431 3.76718C77.8646 3.76504 77.5743 3.76397 77.2722 3.76397C76.97 3.76397 76.6767 3.7629 76.3923 3.76076C76.1079 3.75861 75.8769 3.75755 75.6991 3.75755C75.6221 3.75755 75.5421 3.75219 75.4592 3.74148C75.3762 3.73077 75.3007 3.71043 75.2325 3.68045C75.1644 3.65046 75.1096 3.60656 75.0681 3.54874C75.0267 3.49091 75.0059 3.41274 75.0059 3.31423C75.0059 3.19858 75.0044 3.08721 75.0015 2.98013C74.9985 2.87305 75 2.75311 75.0059 2.62033Z"   fill="#2D2D2D" >
</path>
<path d="M87.0059 2.62033C87.0059 2.44043 87.0667 2.31943 87.1881 2.25732C87.3096 2.19521 87.5006 2.16416 87.7613 2.16416C87.8798 2.16416 88.0665 2.16523 88.3212 2.16738C88.576 2.16951 88.847 2.17059 89.1344 2.17059C89.4218 2.17059 89.7017 2.17165 89.9742 2.1738C90.2468 2.17594 90.463 2.17701 90.623 2.17701C90.8481 2.18129 91.0259 2.16738 91.1562 2.13525C91.2866 2.10313 91.3517 2.02924 91.3517 1.91359C91.3517 1.82792 91.3562 1.72619 91.3651 1.6084C91.374 1.49061 91.3784 1.38888 91.3784 1.30322C91.3843 1.1533 91.4436 1.058 91.5562 1.01731C91.6687 0.976618 91.8109 1.00767 91.9827 1.11047C92.1605 1.21327 92.3678 1.33534 92.6048 1.47669C92.8418 1.61804 93.0877 1.7626 93.3425 1.91038C93.5972 2.05815 93.8461 2.20378 94.089 2.34727C94.3319 2.49076 94.5482 2.61605 94.7378 2.72313C94.9096 2.82593 94.997 2.92337 94.9999 3.01547C95.0029 3.10756 94.9214 3.20286 94.7555 3.30138C94.5837 3.40418 94.3808 3.52196 94.1468 3.65475C93.9127 3.78753 93.6698 3.9246 93.418 4.06594C93.1662 4.20729 92.9188 4.34757 92.6759 4.48678C92.433 4.62598 92.2168 4.74913 92.0272 4.85621C91.8198 4.97614 91.6495 5.02111 91.5162 4.99114C91.3829 4.96115 91.3192 4.86906 91.3251 4.71486L91.3251 4.56066L91.3251 4.37434C91.3251 4.31009 91.3236 4.24691 91.3206 4.18481C91.3177 4.1227 91.3162 4.06594 91.3162 4.01454C91.3162 3.90746 91.2718 3.84 91.1829 3.81216C91.094 3.78431 90.9726 3.7704 90.8185 3.7704C90.6467 3.7704 90.4216 3.76932 90.1431 3.76718C89.8646 3.76504 89.5743 3.76397 89.2722 3.76397C88.97 3.76397 88.6767 3.7629 88.3923 3.76076C88.1079 3.75861 87.8769 3.75755 87.6991 3.75755C87.6221 3.75755 87.5421 3.75219 87.4592 3.74148C87.3762 3.73077 87.3007 3.71043 87.2325 3.68045C87.1644 3.65046 87.1096 3.60656 87.0681 3.54874C87.0267 3.49091 87.0059 3.41274 87.0059 3.31423C87.0059 3.19858 87.0044 3.08721 87.0015 2.98013C86.9985 2.87305 87 2.75311 87.0059 2.62033Z"   fill="#2D2D2D" >
</path>
<path d="M99.0059 2.62033C99.0059 2.44043 99.0667 2.31943 99.1881 2.25732C99.3096 2.19521 99.5006 2.16416 99.7613 2.16416C99.8798 2.16416 100.066 2.16523 100.321 2.16738C100.576 2.16951 100.847 2.17059 101.134 2.17059C101.422 2.17059 101.702 2.17165 101.974 2.1738C102.247 2.17594 102.463 2.17701 102.623 2.17701C102.848 2.18129 103.026 2.16738 103.156 2.13525C103.287 2.10313 103.352 2.02924 103.352 1.91359C103.352 1.82792 103.356 1.72619 103.365 1.6084C103.374 1.49061 103.378 1.38888 103.378 1.30322C103.384 1.1533 103.444 1.058 103.556 1.01731C103.669 0.976618 103.811 1.00767 103.983 1.11047C104.16 1.21327 104.368 1.33534 104.605 1.47669C104.842 1.61804 105.088 1.7626 105.342 1.91038C105.597 2.05815 105.846 2.20378 106.089 2.34727C106.332 2.49076 106.548 2.61605 106.738 2.72313C106.91 2.82593 106.997 2.92337 107 3.01547C107.003 3.10756 106.921 3.20286 106.756 3.30138C106.584 3.40418 106.381 3.52196 106.147 3.65475C105.913 3.78753 105.67 3.9246 105.418 4.06594C105.166 4.20729 104.919 4.34757 104.676 4.48678C104.433 4.62598 104.217 4.74913 104.027 4.85621C103.82 4.97614 103.649 5.02111 103.516 4.99114C103.383 4.96115 103.319 4.86906 103.325 4.71486L103.325 4.56066L103.325 4.37434C103.325 4.31009 103.324 4.24691 103.321 4.18481C103.318 4.1227 103.316 4.06594 103.316 4.01454C103.316 3.90746 103.272 3.84 103.183 3.81216C103.094 3.78431 102.973 3.7704 102.819 3.7704C102.647 3.7704 102.422 3.76932 102.143 3.76718C101.865 3.76504 101.574 3.76397 101.272 3.76397C100.97 3.76397 100.677 3.7629 100.392 3.76076C100.108 3.75861 99.8769 3.75755 99.6991 3.75755C99.6221 3.75755 99.5421 3.75219 99.4592 3.74148C99.3762 3.73077 99.3007 3.71043 99.2325 3.68045C99.1644 3.65046 99.1096 3.60656 99.0681 3.54874C99.0267 3.49091 99.0059 3.41274 99.0059 3.31423C99.0059 3.19858 99.0044 3.08721 99.0015 2.98013C98.9985 2.87305 99 2.75311 99.0059 2.62033Z"   fill="#2D2D2D" >
</path>
<path d="M111.006 2.62033C111.006 2.44043 111.067 2.31943 111.188 2.25732C111.31 2.19521 111.501 2.16416 111.761 2.16416C111.88 2.16416 112.066 2.16523 112.321 2.16738C112.576 2.16951 112.847 2.17059 113.134 2.17059C113.422 2.17059 113.702 2.17165 113.974 2.1738C114.247 2.17594 114.463 2.17701 114.623 2.17701C114.848 2.18129 115.026 2.16738 115.156 2.13525C115.287 2.10313 115.352 2.02924 115.352 1.91359C115.352 1.82792 115.356 1.72619 115.365 1.6084C115.374 1.49061 115.378 1.38888 115.378 1.30322C115.384 1.1533 115.444 1.058 115.556 1.01731C115.669 0.976618 115.811 1.00767 115.983 1.11047C116.16 1.21327 116.368 1.33534 116.605 1.47669C116.842 1.61804 117.088 1.7626 117.342 1.91038C117.597 2.05815 117.846 2.20378 118.089 2.34727C118.332 2.49076 118.548 2.61605 118.738 2.72313C118.91 2.82593 118.997 2.92337 119 3.01547C119.003 3.10756 118.921 3.20286 118.756 3.30138C118.584 3.40418 118.381 3.52196 118.147 3.65475C117.913 3.78753 117.67 3.9246 117.418 4.06594C117.166 4.20729 116.919 4.34757 116.676 4.48678C116.433 4.62598 116.217 4.74913 116.027 4.85621C115.82 4.97614 115.649 5.02111 115.516 4.99114C115.383 4.96115 115.319 4.86906 115.325 4.71486L115.325 4.56066L115.325 4.37434C115.325 4.31009 115.324 4.24691 115.321 4.18481C115.318 4.1227 115.316 4.06594 115.316 4.01454C115.316 3.90746 115.272 3.84 115.183 3.81216C115.094 3.78431 114.973 3.7704 114.819 3.7704C114.647 3.7704 114.422 3.76932 114.143 3.76718C113.865 3.76504 113.574 3.76397 113.272 3.76397C112.97 3.76397 112.677 3.7629 112.392 3.76076C112.108 3.75861 111.877 3.75755 111.699 3.75755C111.622 3.75755 111.542 3.75219 111.459 3.74148C111.376 3.73077 111.301 3.71043 111.233 3.68045C111.164 3.65046 111.11 3.60656 111.068 3.54874C111.027 3.49091 111.006 3.41274 111.006 3.31423C111.006 3.19858 111.004 3.08721 111.001 2.98013C110.999 2.87305 111 2.75311 111.006 2.62033Z"   fill="#2D2D2D" >
</path>
<path d="M123.006 2.62033C123.006 2.44043 123.067 2.31943 123.188 2.25732C123.31 2.19521 123.501 2.16416 123.761 2.16416C123.88 2.16416 124.066 2.16523 124.321 2.16738C124.576 2.16951 124.847 2.17059 125.134 2.17059C125.422 2.17059 125.702 2.17165 125.974 2.1738C126.247 2.17594 126.463 2.17701 126.623 2.17701C126.848 2.18129 127.026 2.16738 127.156 2.13525C127.287 2.10313 127.352 2.02924 127.352 1.91359C127.352 1.82792 127.356 1.72619 127.365 1.6084C127.374 1.49061 127.378 1.38888 127.378 1.30322C127.384 1.1533 127.444 1.058 127.556 1.01731C127.669 0.976618 127.811 1.00767 127.983 1.11047C128.16 1.21327 128.368 1.33534 128.605 1.47669C128.842 1.61804 129.088 1.7626 129.342 1.91038C129.597 2.05815 129.846 2.20378 130.089 2.34727C130.332 2.49076 130.548 2.61605 130.738 2.72313C130.91 2.82593 130.997 2.92337 131 3.01547C131.003 3.10756 130.921 3.20286 130.756 3.30138C130.584 3.40418 130.381 3.52196 130.147 3.65475C129.913 3.78753 129.67 3.9246 129.418 4.06594C129.166 4.20729 128.919 4.34757 128.676 4.48678C128.433 4.62598 128.217 4.74913 128.027 4.85621C127.82 4.97614 127.649 5.02111 127.516 4.99114C127.383 4.96115 127.319 4.86906 127.325 4.71486L127.325 4.56066L127.325 4.37434C127.325 4.31009 127.324 4.24691 127.321 4.18481C127.318 4.1227 127.316 4.06594 127.316 4.01454C127.316 3.90746 127.272 3.84 127.183 3.81216C127.094 3.78431 126.973 3.7704 126.819 3.7704C126.647 3.7704 126.422 3.76932 126.143 3.76718C125.865 3.76504 125.574 3.76397 125.272 3.76397C124.97 3.76397 124.677 3.7629 124.392 3.76076C124.108 3.75861 123.877 3.75755 123.699 3.75755C123.622 3.75755 123.542 3.75219 123.459 3.74148C123.376 3.73077 123.301 3.71043 123.233 3.68045C123.164 3.65046 123.11 3.60656 123.068 3.54874C123.027 3.49091 123.006 3.41274 123.006 3.31423C123.006 3.19858 123.004 3.08721 123.001 2.98013C122.999 2.87305 123 2.75311 123.006 2.62033Z"   fill="#2D2D2D" >
</path>
<path d="M135.006 2.62033C135.006 2.44043 135.067 2.31943 135.188 2.25732C135.31 2.19521 135.501 2.16416 135.761 2.16416C135.88 2.16416 136.066 2.16523 136.321 2.16738C136.576 2.16951 136.847 2.17059 137.134 2.17059C137.422 2.17059 137.702 2.17165 137.974 2.1738C138.247 2.17594 138.463 2.17701 138.623 2.17701C138.848 2.18129 139.026 2.16738 139.156 2.13525C139.287 2.10313 139.352 2.02924 139.352 1.91359C139.352 1.82792 139.356 1.72619 139.365 1.6084C139.374 1.49061 139.378 1.38888 139.378 1.30322C139.384 1.1533 139.444 1.058 139.556 1.01731C139.669 0.976618 139.811 1.00767 139.983 1.11047C140.16 1.21327 140.368 1.33534 140.605 1.47669C140.842 1.61804 141.088 1.7626 141.342 1.91038C141.597 2.05815 141.846 2.20378 142.089 2.34727C142.332 2.49076 142.548 2.61605 142.738 2.72313C142.91 2.82593 142.997 2.92337 143 3.01547C143.003 3.10756 142.921 3.20286 142.756 3.30138C142.584 3.40418 142.381 3.52196 142.147 3.65475C141.913 3.78753 141.67 3.9246 141.418 4.06594C141.166 4.20729 140.919 4.34757 140.676 4.48678C140.433 4.62598 140.217 4.74913 140.027 4.85621C139.82 4.97614 139.649 5.02111 139.516 4.99114C139.383 4.96115 139.319 4.86906 139.325 4.71486L139.325 4.56066L139.325 4.37434C139.325 4.31009 139.324 4.24691 139.321 4.18481C139.318 4.1227 139.316 4.06594 139.316 4.01454C139.316 3.90746 139.272 3.84 139.183 3.81216C139.094 3.78431 138.973 3.7704 138.819 3.7704C138.647 3.7704 138.422 3.76932 138.143 3.76718C137.865 3.76504 137.574 3.76397 137.272 3.76397C136.97 3.76397 136.677 3.7629 136.392 3.76076C136.108 3.75861 135.877 3.75755 135.699 3.75755C135.622 3.75755 135.542 3.75219 135.459 3.74148C135.376 3.73077 135.301 3.71043 135.233 3.68045C135.164 3.65046 135.11 3.60656 135.068 3.54874C135.027 3.49091 135.006 3.41274 135.006 3.31423C135.006 3.19858 135.004 3.08721 135.001 2.98013C134.999 2.87305 135 2.75311 135.006 2.62033Z"   fill="#2D2D2D" >
</path>
<path d="M147.006 2.62033C147.006 2.44043 147.067 2.31943 147.188 2.25732C147.31 2.19521 147.501 2.16416 147.761 2.16416C147.88 2.16416 148.066 2.16523 148.321 2.16738C148.576 2.16951 148.847 2.17059 149.134 2.17059C149.422 2.17059 149.702 2.17165 149.974 2.1738C150.247 2.17594 150.463 2.17701 150.623 2.17701C150.848 2.18129 151.026 2.16738 151.156 2.13525C151.287 2.10313 151.352 2.02924 151.352 1.91359C151.352 1.82792 151.356 1.72619 151.365 1.6084C151.374 1.49061 151.378 1.38888 151.378 1.30322C151.384 1.1533 151.444 1.058 151.556 1.01731C151.669 0.976618 151.811 1.00767 151.983 1.11047C152.16 1.21327 152.368 1.33534 152.605 1.47669C152.842 1.61804 153.088 1.7626 153.342 1.91038C153.597 2.05815 153.846 2.20378 154.089 2.34727C154.332 2.49076 154.548 2.61605 154.738 2.72313C154.91 2.82593 154.997 2.92337 155 3.01547C155.003 3.10756 154.921 3.20286 154.756 3.30138C154.584 3.40418 154.381 3.52196 154.147 3.65475C153.913 3.78753 153.67 3.9246 153.418 4.06594C153.166 4.20729 152.919 4.34757 152.676 4.48678C152.433 4.62598 152.217 4.74913 152.027 4.85621C151.82 4.97614 151.649 5.02111 151.516 4.99114C151.383 4.96115 151.319 4.86906 151.325 4.71486L151.325 4.56066L151.325 4.37434C151.325 4.31009 151.324 4.24691 151.321 4.18481C151.318 4.1227 151.316 4.06594 151.316 4.01454C151.316 3.90746 151.272 3.84 151.183 3.81216C151.094 3.78431 150.973 3.7704 150.819 3.7704C150.647 3.7704 150.422 3.76932 150.143 3.76718C149.865 3.76504 149.574 3.76397 149.272 3.76397C148.97 3.76397 148.677 3.7629 148.392 3.76076C148.108 3.75861 147.877 3.75755 147.699 3.75755C147.622 3.75755 147.542 3.75219 147.459 3.74148C147.376 3.73077 147.301 3.71043 147.233 3.68045C147.164 3.65046 147.11 3.60656 147.068 3.54874C147.027 3.49091 147.006 3.41274 147.006 3.31423C147.006 3.19858 147.004 3.08721 147.001 2.98013C146.999 2.87305 147 2.75311 147.006 2.62033Z"   fill="#2D2D2D" >
</path>
<path d="M159.006 2.62033C159.006 2.44043 159.067 2.31943 159.188 2.25732C159.31 2.19521 159.501 2.16416 159.761 2.16416C159.88 2.16416 160.066 2.16523 160.321 2.16738C160.576 2.16951 160.847 2.17059 161.134 2.17059C161.422 2.17059 161.702 2.17165 161.974 2.1738C162.247 2.17594 162.463 2.17701 162.623 2.17701C162.848 2.18129 163.026 2.16738 163.156 2.13525C163.287 2.10313 163.352 2.02924 163.352 1.91359C163.352 1.82792 163.356 1.72619 163.365 1.6084C163.374 1.49061 163.378 1.38888 163.378 1.30322C163.384 1.1533 163.444 1.058 163.556 1.01731C163.669 0.976618 163.811 1.00767 163.983 1.11047C164.16 1.21327 164.368 1.33534 164.605 1.47669C164.842 1.61804 165.088 1.7626 165.342 1.91038C165.597 2.05815 165.846 2.20378 166.089 2.34727C166.332 2.49076 166.548 2.61605 166.738 2.72313C166.91 2.82593 166.997 2.92337 167 3.01547C167.003 3.10756 166.921 3.20286 166.756 3.30138C166.584 3.40418 166.381 3.52196 166.147 3.65475C165.913 3.78753 165.67 3.9246 165.418 4.06594C165.166 4.20729 164.919 4.34757 164.676 4.48678C164.433 4.62598 164.217 4.74913 164.027 4.85621C163.82 4.97614 163.649 5.02111 163.516 4.99114C163.383 4.96115 163.319 4.86906 163.325 4.71486L163.325 4.56066L163.325 4.37434C163.325 4.31009 163.324 4.24691 163.321 4.18481C163.318 4.1227 163.316 4.06594 163.316 4.01454C163.316 3.90746 163.272 3.84 163.183 3.81216C163.094 3.78431 162.973 3.7704 162.819 3.7704C162.647 3.7704 162.422 3.76932 162.143 3.76718C161.865 3.76504 161.574 3.76397 161.272 3.76397C160.97 3.76397 160.677 3.7629 160.392 3.76076C160.108 3.75861 159.877 3.75755 159.699 3.75755C159.622 3.75755 159.542 3.75219 159.459 3.74148C159.376 3.73077 159.301 3.71043 159.233 3.68045C159.164 3.65046 159.11 3.60656 159.068 3.54874C159.027 3.49091 159.006 3.41274 159.006 3.31423C159.006 3.19858 159.004 3.08721 159.001 2.98013C158.999 2.87305 159 2.75311 159.006 2.62033Z"   fill="#2D2D2D" >
</path>
<path d="M171.006 2.62033C171.006 2.44043 171.067 2.31943 171.188 2.25732C171.31 2.19521 171.501 2.16416 171.761 2.16416C171.88 2.16416 172.066 2.16523 172.321 2.16738C172.576 2.16951 172.847 2.17059 173.134 2.17059C173.422 2.17059 173.702 2.17165 173.974 2.1738C174.247 2.17594 174.463 2.17701 174.623 2.17701C174.848 2.18129 175.026 2.16738 175.156 2.13525C175.287 2.10313 175.352 2.02924 175.352 1.91359C175.352 1.82792 175.356 1.72619 175.365 1.6084C175.374 1.49061 175.378 1.38888 175.378 1.30322C175.384 1.1533 175.444 1.058 175.556 1.01731C175.669 0.976618 175.811 1.00767 175.983 1.11047C176.16 1.21327 176.368 1.33534 176.605 1.47669C176.842 1.61804 177.088 1.7626 177.342 1.91038C177.597 2.05815 177.846 2.20378 178.089 2.34727C178.332 2.49076 178.548 2.61605 178.738 2.72313C178.91 2.82593 178.997 2.92337 179 3.01547C179.003 3.10756 178.921 3.20286 178.756 3.30138C178.584 3.40418 178.381 3.52196 178.147 3.65475C177.913 3.78753 177.67 3.9246 177.418 4.06594C177.166 4.20729 176.919 4.34757 176.676 4.48678C176.433 4.62598 176.217 4.74913 176.027 4.85621C175.82 4.97614 175.649 5.02111 175.516 4.99114C175.383 4.96115 175.319 4.86906 175.325 4.71486L175.325 4.56066L175.325 4.37434C175.325 4.31009 175.324 4.24691 175.321 4.18481C175.318 4.1227 175.316 4.06594 175.316 4.01454C175.316 3.90746 175.272 3.84 175.183 3.81216C175.094 3.78431 174.973 3.7704 174.819 3.7704C174.647 3.7704 174.422 3.76932 174.143 3.76718C173.865 3.76504 173.574 3.76397 173.272 3.76397C172.97 3.76397 172.677 3.7629 172.392 3.76076C172.108 3.75861 171.877 3.75755 171.699 3.75755C171.622 3.75755 171.542 3.75219 171.459 3.74148C171.376 3.73077 171.301 3.71043 171.233 3.68045C171.164 3.65046 171.11 3.60656 171.068 3.54874C171.027 3.49091 171.006 3.41274 171.006 3.31423C171.006 3.19858 171.004 3.08721 171.001 2.98013C170.999 2.87305 171 2.75311 171.006 2.62033Z"   fill="#2D2D2D" >
</path>
<path d="M183.006 2.62033C183.006 2.44043 183.067 2.31943 183.188 2.25732C183.31 2.19521 183.501 2.16416 183.761 2.16416C183.88 2.16416 184.066 2.16523 184.321 2.16738C184.576 2.16951 184.847 2.17059 185.134 2.17059C185.422 2.17059 185.702 2.17165 185.974 2.1738C186.247 2.17594 186.463 2.17701 186.623 2.17701C186.848 2.18129 187.026 2.16738 187.156 2.13525C187.287 2.10313 187.352 2.02924 187.352 1.91359C187.352 1.82792 187.356 1.72619 187.365 1.6084C187.374 1.49061 187.378 1.38888 187.378 1.30322C187.384 1.1533 187.444 1.058 187.556 1.01731C187.669 0.976618 187.811 1.00767 187.983 1.11047C188.16 1.21327 188.368 1.33534 188.605 1.47669C188.842 1.61804 189.088 1.7626 189.342 1.91038C189.597 2.05815 189.846 2.20378 190.089 2.34727C190.332 2.49076 190.548 2.61605 190.738 2.72313C190.91 2.82593 190.997 2.92337 191 3.01547C191.003 3.10756 190.921 3.20286 190.756 3.30138C190.584 3.40418 190.381 3.52196 190.147 3.65475C189.913 3.78753 189.67 3.9246 189.418 4.06594C189.166 4.20729 188.919 4.34757 188.676 4.48678C188.433 4.62598 188.217 4.74913 188.027 4.85621C187.82 4.97614 187.649 5.02111 187.516 4.99114C187.383 4.96115 187.319 4.86906 187.325 4.71486L187.325 4.56066L187.325 4.37434C187.325 4.31009 187.324 4.24691 187.321 4.18481C187.318 4.1227 187.316 4.06594 187.316 4.01454C187.316 3.90746 187.272 3.84 187.183 3.81216C187.094 3.78431 186.973 3.7704 186.819 3.7704C186.647 3.7704 186.422 3.76932 186.143 3.76718C185.865 3.76504 185.574 3.76397 185.272 3.76397C184.97 3.76397 184.677 3.7629 184.392 3.76076C184.108 3.75861 183.877 3.75755 183.699 3.75755C183.622 3.75755 183.542 3.75219 183.459 3.74148C183.376 3.73077 183.301 3.71043 183.233 3.68045C183.164 3.65046 183.11 3.60656 183.068 3.54874C183.027 3.49091 183.006 3.41274 183.006 3.31423C183.006 3.19858 183.004 3.08721 183.001 2.98013C182.999 2.87305 183 2.75311 183.006 2.62033Z"   fill="#2D2D2D" >
</path>
<path d="M195.006 2.62033C195.006 2.44043 195.067 2.31943 195.188 2.25732C195.31 2.19521 195.501 2.16416 195.761 2.16416C195.88 2.16416 196.066 2.16523 196.321 2.16738C196.576 2.16951 196.847 2.17059 197.134 2.17059C197.422 2.17059 197.702 2.17165 197.974 2.1738C198.247 2.17594 198.463 2.17701 198.623 2.17701C198.848 2.18129 199.026 2.16738 199.156 2.13525C199.287 2.10313 199.352 2.02924 199.352 1.91359C199.352 1.82792 199.356 1.72619 199.365 1.6084C199.374 1.49061 199.378 1.38888 199.378 1.30322C199.384 1.1533 199.444 1.058 199.556 1.01731C199.669 0.976618 199.811 1.00767 199.983 1.11047C200.16 1.21327 200.368 1.33534 200.605 1.47669C200.842 1.61804 201.088 1.7626 201.342 1.91038C201.597 2.05815 201.846 2.20378 202.089 2.34727C202.332 2.49076 202.548 2.61605 202.738 2.72313C202.91 2.82593 202.997 2.92337 203 3.01547C203.003 3.10756 202.921 3.20286 202.756 3.30138C202.584 3.40418 202.381 3.52196 202.147 3.65475C201.913 3.78753 201.67 3.9246 201.418 4.06594C201.166 4.20729 200.919 4.34757 200.676 4.48678C200.433 4.62598 200.217 4.74913 200.027 4.85621C199.82 4.97614 199.649 5.02111 199.516 4.99114C199.383 4.96115 199.319 4.86906 199.325 4.71486L199.325 4.56066L199.325 4.37434C199.325 4.31009 199.324 4.24691 199.321 4.18481C199.318 4.1227 199.316 4.06594 199.316 4.01454C199.316 3.90746 199.272 3.84 199.183 3.81216C199.094 3.78431 198.973 3.7704 198.819 3.7704C198.647 3.7704 198.422 3.76932 198.143 3.76718C197.865 3.76504 197.574 3.76397 197.272 3.76397C196.97 3.76397 196.677 3.7629 196.392 3.76076C196.108 3.75861 195.877 3.75755 195.699 3.75755C195.622 3.75755 195.542 3.75219 195.459 3.74148C195.376 3.73077 195.301 3.71043 195.233 3.68045C195.164 3.65046 195.11 3.60656 195.068 3.54874C195.027 3.49091 195.006 3.41274 195.006 3.31423C195.006 3.19858 195.004 3.08721 195.001 2.98013C194.999 2.87305 195 2.75311 195.006 2.62033Z"   fill="#2D2D2D" >
</path>
</svg>
