<svg xmlns="http://www.w3.org/2000/svg" xmlns:xlink="http://www.w3.org/1999/xlink" width="210" height="6" viewBox="0 0 210 6" fill="none">
<path     fill="#4A89E9"  d="M0 6L210 6L210 0L0 0L0 6Z">
</path>
<path d="M3 1L4.5 1L6.49 3L4.5 5L3 5L4.99 3L3 1Z"   fill="#FFFFFF" >
</path>
<path d="M11 1L12.5 1L14.49 3L12.5 5L11 5L12.99 3L11 1Z"   fill="#FFFFFF" >
</path>
<path d="M19 1L20.5 1L22.49 3L20.5 5L19 5L20.99 3L19 1Z"   fill="#FFFFFF" >
</path>
<path d="M27 1L28.5 1L30.49 3L28.5 5L27 5L28.99 3L27 1Z"   fill="#FFFFFF" >
</path>
<path d="M35 1L36.5 1L38.49 3L36.5 5L35 5L36.99 3L35 1Z"   fill="#FFFFFF" >
</path>
<path d="M43 1L44.5 1L46.49 3L44.5 5L43 5L44.99 3L43 1Z"   fill="#FFFFFF" >
</path>
<path d="M51 1L52.5 1L54.49 3L52.5 5L51 5L52.99 3L51 1Z"   fill="#FFFFFF" >
</path>
<path d="M59 1L60.5 1L62.49 3L60.5 5L59 5L60.99 3L59 1Z"   fill="#FFFFFF" >
</path>
<path d="M67 1L68.5 1L70.49 3L68.5 5L67 5L68.99 3L67 1Z"   fill="#FFFFFF" >
</path>
<path d="M75 1L76.5 1L78.49 3L76.5 5L75 5L76.99 3L75 1Z"   fill="#FFFFFF" >
</path>
<path d="M83 1L84.5 1L86.49 3L84.5 5L83 5L84.99 3L83 1Z"   fill="#FFFFFF" >
</path>
<path d="M91 1L92.5 1L94.49 3L92.5 5L91 5L92.99 3L91 1Z"   fill="#FFFFFF" >
</path>
<path d="M99 1L100.5 1L102.49 3L100.5 5L99 5L100.99 3L99 1Z"   fill="#FFFFFF" >
</path>
<path d="M107 1L108.5 1L110.49 3L108.5 5L107 5L108.99 3L107 1Z"   fill="#FFFFFF" >
</path>
<path d="M115 1L116.5 1L118.49 3L116.5 5L115 5L116.99 3L115 1Z"   fill="#FFFFFF" >
</path>
<path d="M123 1L124.5 1L126.49 3L124.5 5L123 5L124.99 3L123 1Z"   fill="#FFFFFF" >
</path>
<path d="M131 1L132.5 1L134.49 3L132.5 5L131 5L132.99 3L131 1Z"   fill="#FFFFFF" >
</path>
<path d="M139 1L140.5 1L142.49 3L140.5 5L139 5L140.99 3L139 1Z"   fill="#FFFFFF" >
</path>
<path d="M147 1L148.5 1L150.49 3L148.5 5L147 5L148.99 3L147 1Z"   fill="#FFFFFF" >
</path>
<path d="M155 1L156.5 1L158.49 3L156.5 5L155 5L156.99 3L155 1Z"   fill="#FFFFFF" >
</path>
<path d="M163 1L164.5 1L166.49 3L164.5 5L163 5L164.99 3L163 1Z"   fill="#FFFFFF" >
</path>
<path d="M171 1L172.5 1L174.49 3L172.5 5L171 5L172.99 3L171 1Z"   fill="#FFFFFF" >
</path>
<path d="M179 1L180.5 1L182.49 3L180.5 5L179 5L180.99 3L179 1Z"   fill="#FFFFFF" >
</path>
<path d="M187 1L188.5 1L190.49 3L188.5 5L187 5L188.99 3L187 1Z"   fill="#FFFFFF" >
</path>
<path d="M195 1L196.5 1L198.49 3L196.5 5L195 5L196.99 3L195 1Z"   fill="#FFFFFF" >
</path>
<path d="M203 1L204.5 1L206.49 3L204.5 5L203 5L204.99 3L203 1Z"   fill="#FFFFFF" >
</path>
</svg>
