<svg xmlns="http://www.w3.org/2000/svg" xmlns:xlink="http://www.w3.org/1999/xlink" width="206" height="6" viewBox="0 0 206 6" fill="none">
<path     fill="#AF856B"  d="M0 6L206 6L206 0L0 0L0 6Z">
</path>
<path d="M8.9672 5L6.99976 2.67952L5.03232 5L3.60986 5L6.99976 0.999996L10.3897 5L8.9672 5Z"   fill="#FFFFFF" >
</path>
<path d="M20.9672 5L18.9998 2.67952L17.0323 5L15.6099 5L18.9998 0.999996L22.3897 5L20.9672 5Z"   fill="#FFFFFF" >
</path>
<path d="M32.9672 5L30.9998 2.67952L29.0323 5L27.6099 5L30.9998 0.999996L34.3897 5L32.9672 5Z"   fill="#FFFFFF" >
</path>
<path d="M44.9672 5L42.9998 2.67952L41.0323 5L39.6099 5L42.9998 0.999996L46.3897 5L44.9672 5Z"   fill="#FFFFFF" >
</path>
<path d="M56.9672 5L54.9998 2.67952L53.0323 5L51.6099 5L54.9998 0.999996L58.3897 5L56.9672 5Z"   fill="#FFFFFF" >
</path>
<path d="M68.9672 5L66.9998 2.67952L65.0323 5L63.6099 5L66.9998 0.999996L70.3897 5L68.9672 5Z"   fill="#FFFFFF" >
</path>
<path d="M80.9672 5L78.9998 2.67952L77.0323 5L75.6099 5L78.9998 0.999996L82.3897 5L80.9672 5Z"   fill="#FFFFFF" >
</path>
<path d="M92.9672 5L90.9998 2.67952L89.0323 5L87.6099 5L90.9998 0.999996L94.3897 5L92.9672 5Z"   fill="#FFFFFF" >
</path>
<path d="M104.967 5L103 2.67952L101.032 5L99.6099 5L103 0.999996L106.39 5L104.967 5Z"   fill="#FFFFFF" >
</path>
<path d="M116.967 5L115 2.67952L113.032 5L111.61 5L115 0.999996L118.39 5L116.967 5Z"   fill="#FFFFFF" >
</path>
<path d="M128.967 5L127 2.67952L125.032 5L123.61 5L127 0.999996L130.39 5L128.967 5Z"   fill="#FFFFFF" >
</path>
<path d="M140.967 5L139 2.67952L137.032 5L135.61 5L139 0.999996L142.39 5L140.967 5Z"   fill="#FFFFFF" >
</path>
<path d="M152.967 5L151 2.67952L149.032 5L147.61 5L151 0.999996L154.39 5L152.967 5Z"   fill="#FFFFFF" >
</path>
<path d="M164.967 5L163 2.67952L161.032 5L159.61 5L163 0.999996L166.39 5L164.967 5Z"   fill="#FFFFFF" >
</path>
<path d="M176.967 5L175 2.67952L173.032 5L171.61 5L175 0.999996L178.39 5L176.967 5Z"   fill="#FFFFFF" >
</path>
<path d="M188.967 5L187 2.67952L185.032 5L183.61 5L187 0.999996L190.39 5L188.967 5Z"   fill="#FFFFFF" >
</path>
<path d="M200.967 5L199 2.67952L197.032 5L195.61 5L199 0.999996L202.39 5L200.967 5Z"   fill="#FFFFFF" >
</path>
</svg>
