<svg xmlns="http://www.w3.org/2000/svg" xmlns:xlink="http://www.w3.org/1999/xlink" width="205" height="6" viewBox="0 0 205 6" fill="none">
<g  clip-path="url(#clip-path-pQLwWEk9Zm8cc4yKIIc7p)">
<path d="M-2 6L208 6L208 0L-2 0L-2 6Z"   fill="#FFFFFF" >
</path>
<path d="M1 1L2.5 1L4.49 3L2.5 5L1 5L2.99 3L1 1Z"   fill="#4A89E9" >
</path>
<path d="M9 1L10.5 1L12.49 3L10.5 5L9 5L10.99 3L9 1Z"   fill="#4A89E9" >
</path>
<path d="M17 1L18.5 1L20.49 3L18.5 5L17 5L18.99 3L17 1Z"   fill="#4A89E9" >
</path>
<path d="M25 1L26.5 1L28.49 3L26.5 5L25 5L26.99 3L25 1Z"   fill="#4A89E9" >
</path>
<path d="M33 1L34.5 1L36.49 3L34.5 5L33 5L34.99 3L33 1Z"   fill="#4A89E9" >
</path>
<path d="M41 1L42.5 1L44.49 3L42.5 5L41 5L42.99 3L41 1Z"   fill="#4A89E9" >
</path>
<path d="M49 1L50.5 1L52.49 3L50.5 5L49 5L50.99 3L49 1Z"   fill="#4A89E9" >
</path>
<path d="M57 1L58.5 1L60.49 3L58.5 5L57 5L58.99 3L57 1Z"   fill="#4A89E9" >
</path>
<path d="M65 1L66.5 1L68.49 3L66.5 5L65 5L66.99 3L65 1Z"   fill="#4A89E9" >
</path>
<path d="M73 1L74.5 1L76.49 3L74.5 5L73 5L74.99 3L73 1Z"   fill="#4A89E9" >
</path>
<path d="M81 1L82.5 1L84.49 3L82.5 5L81 5L82.99 3L81 1Z"   fill="#4A89E9" >
</path>
<path d="M89 1L90.5 1L92.49 3L90.5 5L89 5L90.99 3L89 1Z"   fill="#4A89E9" >
</path>
<path d="M97 1L98.5 1L100.49 3L98.5 5L97 5L98.99 3L97 1Z"   fill="#4A89E9" >
</path>
<path d="M105 1L106.5 1L108.49 3L106.5 5L105 5L106.99 3L105 1Z"   fill="#4A89E9" >
</path>
<path d="M113 1L114.5 1L116.49 3L114.5 5L113 5L114.99 3L113 1Z"   fill="#4A89E9" >
</path>
<path d="M121 1L122.5 1L124.49 3L122.5 5L121 5L122.99 3L121 1Z"   fill="#4A89E9" >
</path>
<path d="M129 1L130.5 1L132.49 3L130.5 5L129 5L130.99 3L129 1Z"   fill="#4A89E9" >
</path>
<path d="M137 1L138.5 1L140.49 3L138.5 5L137 5L138.99 3L137 1Z"   fill="#4A89E9" >
</path>
<path d="M145 1L146.5 1L148.49 3L146.5 5L145 5L146.99 3L145 1Z"   fill="#4A89E9" >
</path>
<path d="M153 1L154.5 1L156.49 3L154.5 5L153 5L154.99 3L153 1Z"   fill="#4A89E9" >
</path>
<path d="M161 1L162.5 1L164.49 3L162.5 5L161 5L162.99 3L161 1Z"   fill="#4A89E9" >
</path>
<path d="M169 1L170.5 1L172.49 3L170.5 5L169 5L170.99 3L169 1Z"   fill="#4A89E9" >
</path>
<path d="M177 1L178.5 1L180.49 3L178.5 5L177 5L178.99 3L177 1Z"   fill="#4A89E9" >
</path>
<path d="M185 1L186.5 1L188.49 3L186.5 5L185 5L186.99 3L185 1Z"   fill="#4A89E9" >
</path>
<path d="M193 1L194.5 1L196.49 3L194.5 5L193 5L194.99 3L193 1Z"   fill="#4A89E9" >
</path>
<path d="M201 1L202.5 1L204.49 3L202.5 5L201 5L202.99 3L201 1Z"   fill="#4A89E9" >
</path>
</g>
<defs>
<clipPath id="clip-path-pQLwWEk9Zm8cc4yKIIc7p">
<path d="M0 6L205 6L205 0L0 0L0 6Z" fill="white"/>
</clipPath>
</defs>
</svg>
