<svg xmlns="http://www.w3.org/2000/svg" xmlns:xlink="http://www.w3.org/1999/xlink" width="256" height="32" viewBox="0 0 256 32" fill="none">
<path  transform="translate(23, 13)"   fill="#4A89E9"  d="M0 6L210 6L210 0L0 0L0 6Z">
</path>
<path d="M32.506 18L34.0098 18L36 16L34.0098 14L32.506 14L34.4963 16L32.506 18ZM30 14L31.5037 14L33.494 16L31.5037 18L30 18L31.9902 16L30 14Z"   fill="#FFFFFF" >
</path>
<path d="M42.506 18L44.0098 18L46 16L44.0098 14L42.506 14L44.4963 16L42.506 18ZM40 14L41.5037 14L43.494 16L41.5037 18L40 18L41.9902 16L40 14Z"   fill="#FFFFFF" >
</path>
<path d="M52.506 18L54.0098 18L56 16L54.0098 14L52.506 14L54.4963 16L52.506 18ZM50 14L51.5037 14L53.494 16L51.5037 18L50 18L51.9902 16L50 14Z"   fill="#FFFFFF" >
</path>
<path d="M62.506 18L64.0098 18L66 16L64.0098 14L62.506 14L64.4962 16L62.506 18ZM60 14L61.5037 14L63.494 16L61.5037 18L60 18L61.9902 16L60 14Z"   fill="#FFFFFF" >
</path>
<path d="M72.506 18L74.0098 18L76 16L74.0098 14L72.506 14L74.4962 16L72.506 18ZM70 14L71.5037 14L73.494 16L71.5037 18L70 18L71.9902 16L70 14Z"   fill="#FFFFFF" >
</path>
<path d="M82.506 18L84.0098 18L86 16L84.0098 14L82.506 14L84.4962 16L82.506 18ZM80 14L81.5037 14L83.494 16L81.5037 18L80 18L81.9902 16L80 14Z"   fill="#FFFFFF" >
</path>
<path d="M92.506 18L94.0098 18L96 16L94.0098 14L92.506 14L94.4962 16L92.506 18ZM90 14L91.5037 14L93.494 16L91.5037 18L90 18L91.9902 16L90 14Z"   fill="#FFFFFF" >
</path>
<path d="M102.506 18L104.01 18L106 16L104.01 14L102.506 14L104.496 16L102.506 18ZM100 14L101.504 14L103.494 16L101.504 18L100 18L101.99 16L100 14Z"   fill="#FFFFFF" >
</path>
<path d="M112.506 18L114.01 18L116 16L114.01 14L112.506 14L114.496 16L112.506 18ZM110 14L111.504 14L113.494 16L111.504 18L110 18L111.99 16L110 14Z"   fill="#FFFFFF" >
</path>
<path d="M122.506 18L124.01 18L126 16L124.01 14L122.506 14L124.496 16L122.506 18ZM120 14L121.504 14L123.494 16L121.504 18L120 18L121.99 16L120 14Z"   fill="#FFFFFF" >
</path>
<path d="M132.506 18L134.01 18L136 16L134.01 14L132.506 14L134.496 16L132.506 18ZM130 14L131.504 14L133.494 16L131.504 18L130 18L131.99 16L130 14Z"   fill="#FFFFFF" >
</path>
<path d="M142.506 18L144.01 18L146 16L144.01 14L142.506 14L144.496 16L142.506 18ZM140 14L141.504 14L143.494 16L141.504 18L140 18L141.99 16L140 14Z"   fill="#FFFFFF" >
</path>
<path d="M152.506 18L154.01 18L156 16L154.01 14L152.506 14L154.496 16L152.506 18ZM150 14L151.504 14L153.494 16L151.504 18L150 18L151.99 16L150 14Z"   fill="#FFFFFF" >
</path>
<path d="M162.506 18L164.01 18L166 16L164.01 14L162.506 14L164.496 16L162.506 18ZM160 14L161.504 14L163.494 16L161.504 18L160 18L161.99 16L160 14Z"   fill="#FFFFFF" >
</path>
<path d="M172.506 18L174.01 18L176 16L174.01 14L172.506 14L174.496 16L172.506 18ZM170 14L171.504 14L173.494 16L171.504 18L170 18L171.99 16L170 14Z"   fill="#FFFFFF" >
</path>
<path d="M182.506 18L184.01 18L186 16L184.01 14L182.506 14L184.496 16L182.506 18ZM180 14L181.504 14L183.494 16L181.504 18L180 18L181.99 16L180 14Z"   fill="#FFFFFF" >
</path>
<path d="M192.506 18L194.01 18L196 16L194.01 14L192.506 14L194.496 16L192.506 18ZM190 14L191.504 14L193.494 16L191.504 18L190 18L191.99 16L190 14Z"   fill="#FFFFFF" >
</path>
<path d="M202.506 18L204.01 18L206 16L204.01 14L202.506 14L204.496 16L202.506 18ZM200 14L201.504 14L203.494 16L201.504 18L200 18L201.99 16L200 14Z"   fill="#FFFFFF" >
</path>
<path d="M212.506 18L214.01 18L216 16L214.01 14L212.506 14L214.496 16L212.506 18ZM210 14L211.504 14L213.494 16L211.504 18L210 18L211.99 16L210 14Z"   fill="#FFFFFF" >
</path>
<path d="M222.506 18L224.01 18L226 16L224.01 14L222.506 14L224.496 16L222.506 18ZM220 14L221.504 14L223.494 16L221.504 18L220 18L221.99 16L220 14Z"   fill="#FFFFFF" >
</path>
</svg>
