<svg xmlns="http://www.w3.org/2000/svg" xmlns:xlink="http://www.w3.org/1999/xlink" width="254" height="32" viewBox="0 0 254 32" fill="none">
<path   fill="rgba(51, 51, 51, 1)"  d="M23 15L27.9524 15L27.9524 17L23 17L23 15ZM31.9143 15L41.819 15L41.819 17L31.9143 17L31.9143 15ZM45.781 15L55.6857 15L55.6857 17L45.781 17L45.781 15ZM59.6476 15L69.5524 15L69.5524 17L59.6476 17L59.6476 15ZM73.5143 15L83.4191 15L83.4191 17L73.5143 17L73.5143 15ZM87.381 15L97.2857 15L97.2857 17L87.381 17L87.381 15ZM101.248 15L111.152 15L111.152 17L101.248 17L101.248 15ZM115.114 15L125.019 15L125.019 17L115.114 17L115.114 15ZM128.981 15L138.886 15L138.886 17L128.981 17L128.981 15ZM142.848 15L152.752 15L152.752 17L142.848 17L142.848 15ZM156.714 15L166.619 15L166.619 17L156.714 17L156.714 15ZM170.581 15L180.486 15L180.486 17L170.581 17L170.581 15ZM184.448 15L194.352 15L194.352 17L184.448 17L184.448 15ZM198.314 15L208.219 15L208.219 17L198.314 17L198.314 15ZM212.181 15L222.086 15L222.086 17L212.181 17L212.181 15ZM226.048 15L231 15L231 17L226.048 17L226.048 15Z">
</path>
</svg>
