<svg xmlns="http://www.w3.org/2000/svg" xmlns:xlink="http://www.w3.org/1999/xlink" width="258" height="32" viewBox="0 0 258 32" fill="none">
<rect  x="23" y="13" width="211.99966430664062" height="6"    fill="#FF5733" fill-opacity="0.5">
</rect>
<path fill-rule="evenodd"  fill="rgba(255, 87, 51, 1)"  d="M235 13.5455L235 13L23 13L23 13.5455L235 13.5455ZM235 18.4545L23 18.4545L23 19L235 19L235 18.4545Z">
</path>
<rect x="38.82080078125" y="13" width="2.72705078125" height="5.99951171875"   fill="#FF5733" >
</rect>
<rect x="50.27783203125" y="13" width="2.72705078125" height="5.99951171875"   fill="#FF5733" >
</rect>
<rect x="61.7353515625" y="13" width="2.72705078125" height="5.99951171875"   fill="#FF5733" >
</rect>
<rect x="73.1923828125" y="13" width="2.72705078125" height="5.99951171875"   fill="#FF5733" >
</rect>
<rect x="84.64990234375" y="13" width="2.72705078125" height="5.99951171875"   fill="#FF5733" >
</rect>
<rect x="96.10693359375" y="13" width="2.72705078125" height="5.99951171875"   fill="#FF5733" >
</rect>
<rect x="107.564453125" y="13" width="2.72705078125" height="5.99951171875"   fill="#FF5733" >
</rect>
<rect x="119.021484375" y="13" width="2.72705078125" height="5.99951171875"   fill="#FF5733" >
</rect>
<rect x="130.47900390625" y="13" width="2.72705078125" height="5.99951171875"   fill="#FF5733" >
</rect>
<rect x="141.93603515625" y="13" width="2.72705078125" height="5.99951171875"   fill="#FF5733" >
</rect>
<rect x="153.3935546875" y="13" width="2.72705078125" height="5.99951171875"   fill="#FF5733" >
</rect>
<rect x="164.8505859375" y="13" width="2.72705078125" height="5.99951171875"   fill="#FF5733" >
</rect>
<rect x="176.30810546875" y="13" width="2.72705078125" height="5.99951171875"   fill="#FF5733" >
</rect>
<rect x="187.765625" y="13" width="2.72705078125" height="5.99951171875"   fill="#FF5733" >
</rect>
<rect x="199.22314453125" y="13" width="2.72705078125" height="5.99951171875"   fill="#FF5733" >
</rect>
<rect x="210.6806640625" y="13" width="2.72705078125" height="5.99951171875"   fill="#FF5733" >
</rect>
<rect x="222.13818359375" y="13" width="2.72705078125" height="5.99951171875"   fill="#FF5733" >
</rect>
</svg>
